# xmcd
#
# Track frame offsets:
# 150
# 12934
# 31251
# 47789
# 65048
# 86276
# 106131
# 121147
# 140193
# 160551
# 176977
# 194906
# 209945
# 227997
# 243001
# 258990
# 275849
# 291309
# 305917
# 324432
#
# Disc length: 4617 seconds
#
#
# Revision: 0
# Processed by: cddbd v1.5.1PL0 Copyright (c) Steve Scherf et al.
# Submitted via: FreeRIP 2.91 
#
DISCID=37120714
DTITLE=Shania Twain - UP
DYEAR=2002
DGENRE=Country
TTITLE0=UP
TTITLE1=I'm Goinna Getcha Good
TTITLE2=She's Not Just A Pretty Face
TTITLE3=Juanita
TTITLE4=Forever And Always
TTITLE5=Ain't No Particular Way
TTITLE6=It Only Hurts When I'm Breathing
TTITLE7=Nah!
TTITLE8=Wanna Know You That Good
TTITLE9=C'est La Vie
TTITLE10=I'm Jealous
TTITLE11=Ka-Ching
TTITLE12=Thank You Baby
TTITLE13=Waiter! Bring Me Water
TTITLE14=What A Way To Wanna Be
TTITLE15=I Ain't Going Down
TTITLE16=I'm Not In The Mood
TTITLE17=In My Car
TTITLE18=When You Kiss Me
TTITLE19=From This Moment
EXTD=
EXTT0=
EXTT1=
EXTT2=
EXTT3=
EXTT4=
EXTT5=
EXTT6=
EXTT7=
EXTT8=
EXTT9=
EXTT10=
EXTT11=
EXTT12=
EXTT13=
EXTT14=
EXTT15=
EXTT16=
EXTT17=
EXTT18=
EXTT19=
PLAYORDER=
